<svg xmlns="http://www.w3.org/2000/svg" viewBox="0 0 48 48"><defs><style>.cls-1{fill:#dad7e5;}.cls-2{fill:#edebf2;}.cls-3{fill:#374f68;}.cls-4{fill:#425b72;}.cls-5{fill:#9fdbf3;}.cls-6{fill:#b2e5fb;}.cls-7{fill:#fc6;}.cls-8{fill:#ffde76;}</style></defs><title>13. Pickup car</title><g id="_13._Pickup_car" data-name="13. Pickup car"><path class="cls-1" d="M20,14H17.44a2,2,0,0,0-1.9,1.37L14,20H1v8a2,2,0,0,0,2,2H45a2,2,0,0,0,2-2V23.67a2,2,0,0,0-1.64-2L36,20l-5.88-5C28.63,13.68,27.79,14,20,14Z"/><path class="cls-2" d="M47,23.67V28H24.08a8.57,8.57,0,0,1-6.64-14c10.36,0,11.19-.32,12.68,1L36,20l9.36,1.7A2,2,0,0,1,47,23.67Z"/><circle class="cls-3" cx="37" cy="30" r="4"/><circle class="cls-3" cx="11" cy="30" r="4"/><path class="cls-4" d="M14.64,31.64a4,4,0,0,1-5.28-5.28A4,4,0,0,1,14.64,31.64Z"/><path class="cls-4" d="M40.64,31.64a4,4,0,0,1-5.28-5.28A4,4,0,0,1,40.64,31.64Z"/><path class="cls-5" d="M36,20H19.39a1,1,0,0,1-.95-1.32L20,14h7.52C29.54,14,30.09,14.93,36,20Z"/><path class="cls-6" d="M33.67,18c-8,0-7.3,0-7.67,0a4.05,4.05,0,0,1-3.67-4C30,14,28.19,13.31,33.67,18Z"/><path class="cls-7" d="M47,23.67V26H44a1,1,0,0,1-1-1V21.27l2.36.43A2,2,0,0,1,47,23.67Z"/><path class="cls-8" d="M47,23.67V25a3,3,0,0,1-3-3v-.55l1.36.25A2,2,0,0,1,47,23.67Z"/><path class="cls-7" d="M5,20c0,2,.06,2.32-.18,2.82C4.15,24.3,2.62,24,1,24V20Z"/><path class="cls-8" d="M5,20c0,2,.06,2.32-.18,2.82C3.89,23.26,2,22.3,2,20.5V20Z"/><path d="M37.55,29.17a1,1,0,1,0-.17,1.75A1,1,0,0,0,37.55,29.17Z"/><path d="M11.71,29.29a1,1,0,1,0,0,1.42A1,1,0,0,0,11.71,29.29Z"/><path d="M29,23H27a1,1,0,0,0,0,2h2A1,1,0,0,0,29,23Z"/><path d="M45.54,20.72l-9.1-1.66L30.77,14.2C28.9,12.59,27.85,13,17.44,13a3,3,0,0,0-2.84,2.05L13.28,19H1a1,1,0,0,0-1,1v8a3,3,0,0,0,3,3H6.1a5,5,0,0,0,9.8,0H32.1a5,5,0,0,0,9.8,0H45a3,3,0,0,0,3-3V23.67A3,3,0,0,0,45.54,20.72ZM46,25H44V22.47C46.23,22.88,46,22.83,46,25ZM33.3,19H26V15C29.21,15,28.24,14.66,33.3,19ZM19.39,19l1.33-4H24v4ZM2,21H4v1a1,1,0,0,1-1,1H2Zm9,12a3,3,0,1,1,3-3A3,3,0,0,1,11,33Zm26,0a3,3,0,1,1,3-3A3,3,0,0,1,37,33Zm8-4H41.9a5,5,0,0,0-9.8,0H15.9a5,5,0,0,0-9.8,0H3a1,1,0,0,1-1-1V25H3a3,3,0,0,0,3-3V21h8c1,0,.9-.53,2.49-5.32.26-.77.89-.68,2.12-.68l-1.12,3.37A2,2,0,0,0,19.39,21c19.82,0,14.49-.37,22.61,1.11V25a2,2,0,0,0,2,2h2v1A1,1,0,0,1,45,29Z"/></g></svg>